Coordinates
version=1
nRows=10
nColumns=23
inDegrees=yes

Units are S.I. units (second, meters, Newtons, ...)
Angles are in degrees.

endheader
time	pelvis_tilt	pelvis_list	pelvis_rotation	pelvis_tx	pelvis_ty	pelvis_tz	hip_flexion_r	hip_adduction_r	hip_rotation_r	knee_angle_r	knee_angle_r_beta	ankle_angle_r	subtalar_angle_r	mtp_angle_r	hip_flexion_l	hip_adduction_l	hip_rotation_l	knee_angle_l	knee_angle_l_beta	ankle_angle_l	subtalar_angle_l	mtp_angle_l
    120.00000000	     19.26232135	      5.88091253	      3.88938554	      0.03236831	      1.27116308	      0.19417361	     29.77488850	    -16.50021419	     -7.97509750	     58.19996698	      1.01578105	    -14.69896126	      0.00000000	      0.00000000	     33.53760056	     -7.01228858	     -3.63804990	    104.74625001	      1.82816694	     -5.31498299	      0.00000000	      0.00000000
    120.00888900	     19.13393531	      6.52159650	      4.02614920	      0.03197811	      1.27076798	      0.19469520	     28.17545342	    -16.87363011	     -8.07044775	     55.80536158	      0.97398730	    -16.28809309	      0.00000000	      0.00000000	     35.29518241	     -6.45612346	     -3.65972040	    106.70485046	      1.86235097	     -4.90603393	      0.00000000	      0.00000000
    120.01777800	     18.90813431	      7.13172553	      4.05328880	      0.03170748	      1.27037298	      0.19528790	     26.75897687	    -17.15890127	     -8.02541145	     53.53958105	      0.93444197	    -17.57568744	      0.00000000	      0.00000000	     37.12341612	     -6.00881604	     -3.82134430	    108.52725392	      1.89415791	     -4.45481801	      0.00000000	      0.00000000
    120.02666700	     18.67431189	      7.66640912	      4.07818614	      0.03138754	      1.26999323	      0.19572114	     25.41555784	    -17.37696259	     -7.94792568	     51.42362454	      0.89751156	    -18.95671605	      0.00000000	      0.00000000	     38.97504299	     -5.62603821	     -3.99167820	    110.21813522	      1.92366935	     -3.92938391	      0.00000000	      0.00000000
    120.03555600	     18.43705097	      8.17198765	      4.07262639	      0.03103667	      1.26963888	      0.19607802	     24.16418004	    -17.57787490	     -7.82445865	     49.49455277	      0.86384291	    -20.31460287	      0.00000000	      0.00000000	     40.80790143	     -5.28833370	     -4.22439014	    111.75925703	      1.95056700	     -3.33399016	      0.00000000	      0.00000000
    120.04444400	     18.19574160	      8.59054285	      4.07953491	      0.03066657	      1.26933458	      0.19630085	     22.98998108	    -17.71386005	     -7.70598211	     47.75341145	      0.83345426	    -21.69019579	      0.00000000	      0.00000000	     42.63786416	     -5.01411536	     -4.41961069	    113.13138659	      1.97451518	     -2.72159839	      0.00000000	      0.00000000
    120.05333300	     17.96879475	      9.00997960	      4.03409704	      0.03028620	      1.26907395	      0.19648058	     21.92234865	    -17.87139453	     -7.53761837	     46.27233787	      0.80760465	    -22.92326255	      0.00000000	      0.00000000	     44.39134238	     -4.77504234	     -4.71109520	    114.31933919	      1.99524887	     -2.01920073	      0.00000000	      0.00000000
    120.06222200	     17.75162080	      9.35190896	      3.99378845	      0.02991014	      1.26883107	      0.19656783	     20.93777755	    -17.98315936	     -7.38948565	     45.04422608	      0.78617005	    -24.03565377	      0.00000000	      0.00000000	     46.10636941	     -4.60217397	     -4.98621114	    115.32951725	      2.01287980	     -1.36913728	      0.00000000	      0.00000000
    120.07111100	     17.54713777	      9.66069982	      3.93291074	      0.02952947	      1.26864228	      0.19665393	     20.05634799	    -18.09299298	     -7.24414573	     44.09076972	      0.76952910	    -24.94809777	      0.00000000	      0.00000000	     47.73127406	     -4.48872259	     -5.31677782	    116.12097726	      2.02669338	     -0.67961732	      0.00000000	      0.00000000
    120.08000000	     17.36735827	      9.91290433	      3.87758513	      0.02911525	      1.26843629	      0.19661358	     19.26339894	    -18.17953411	     -7.06757753	     43.43990358	      0.75816934	    -25.68244180	      0.00000000	      0.00000000	     49.27616403	     -4.38935106	     -5.60923976	    116.73575471	      2.03742327	     -0.01928598	      0.00000000	      0.00000000
